<svg width="24" height="25" viewBox="0 0 24 25" fill="none" xmlns="http://www.w3.org/2000/svg">
<g clip-path="url(#clip0_8_2049)">
<path d="M23.2174 22.8147H22.1739V17.3364C22.1739 16.0418 21.1207 14.9886 19.8261 14.9886H19.0434V9.51029C19.0434 8.21565 17.9902 7.16246 16.6956 7.16246H12.7826V6.49651C13.6915 6.17241 14.3478 5.31184 14.3478 4.29291C14.3478 3.88224 14.2398 3.47743 14.0349 3.1223C14.0349 3.1223 14.0344 3.12202 14.0344 3.12179L12.6776 0.771195C12.538 0.529133 12.2797 0.379883 12 0.379883C11.7203 0.379883 11.4619 0.529133 11.3224 0.771195L9.96502 3.1223C9.76017 3.47743 9.65217 3.88229 9.65217 4.29291C9.65217 5.31184 10.3084 6.17241 11.2174 6.49651V7.16246H7.30434C6.0097 7.16246 4.95652 8.21565 4.95652 9.51029V14.9886H4.17394C2.8793 14.9886 1.82611 16.0418 1.82611 17.3364C1.82611 17.5278 1.82611 21.1724 1.82611 22.8147H0.782625C0.350578 22.8147 0 23.165 0 23.5973C0 24.0296 0.350578 24.3799 0.782625 24.3799H23.2174C23.6495 24.3799 24 24.0296 24 23.5973C24 23.165 23.6494 22.8147 23.2174 22.8147ZM11.3208 3.90446L12 2.72799L12.6792 3.90446C12.748 4.02366 12.7826 4.15435 12.7826 4.29296C12.7826 4.72449 12.4315 5.07559 12 5.07559C11.5685 5.07559 11.2174 4.72449 11.2174 4.29296C11.2174 4.15435 11.2526 4.02338 11.3208 3.90446ZM6.52172 9.51034C6.52172 9.0788 6.87281 8.72771 7.30434 8.72771H16.6957C17.1272 8.72771 17.4783 9.0788 17.4783 9.51034V11.7631C17.4041 11.6883 17.328 11.6093 17.2378 11.5111C16.7838 11.0174 16.1623 10.3411 15.0958 10.3411C14.0299 10.3411 13.4088 11.0172 12.9548 11.5106C12.5212 11.9827 12.3103 12.1748 11.9654 12.1748C11.6098 12.1748 11.381 11.9462 10.9739 11.5081C10.5163 11.0157 9.89016 10.3411 8.83495 10.3411C7.76906 10.3411 7.14797 11.0172 6.6945 11.5106C6.63098 11.5798 6.57764 11.6346 6.52177 11.6931L6.52172 9.51034ZM20.6087 18.292C19.979 18.5097 19.551 18.9722 19.2157 19.3368C18.7821 19.8089 18.5711 20.0009 18.2262 20.0009C17.8818 20.0009 17.6714 19.8088 17.2378 19.3373C16.7838 18.8435 16.1622 18.1672 15.0958 18.1672C14.0299 18.1672 13.4088 18.8433 12.9548 19.3367C12.5212 19.8088 12.3102 20.0009 11.9653 20.0009C11.6097 20.0009 11.3809 19.7724 10.9738 19.3342C10.5163 18.8418 9.89011 18.1672 8.83491 18.1672C7.76902 18.1672 7.14792 18.8433 6.69394 19.3367C6.26034 19.8088 6.04941 20.0009 5.70445 20.0009C5.33198 20.0009 5.01966 19.6875 4.54936 19.1714C4.21983 18.8099 3.85697 18.4162 3.39127 18.1552V17.3364C3.39127 16.9049 3.74236 16.5538 4.17389 16.5538H19.8261C20.2576 16.5538 20.6087 16.9049 20.6087 17.3364V18.292Z" fill="#A6D168"/>
</g>
<defs>
<clipPath id="clip0_8_2049">
<rect width="24" height="24" fill="white" transform="translate(0 0.379883)"/>
</clipPath>
</defs>
</svg>