<svg width="24" height="25" viewBox="0 0 24 25" fill="none" xmlns="http://www.w3.org/2000/svg">
<path d="M14.1374 3.11767C13.3942 3.8609 13.0092 5.15634 13.2895 6.16958C13.438 6.70591 13.4622 7.35529 13.0687 7.74878L7.3689 13.4486C6.97541 13.8421 6.32603 13.8179 5.7897 13.6694C4.77646 13.3891 3.48101 13.7741 2.73779 14.5173C1.75407 15.5011 1.75407 17.096 2.73779 18.0797C3.72152 19.0634 5.31646 19.0634 6.30018 18.0797C5.31646 19.0634 5.31645 20.6584 6.30018 21.6421C7.28391 22.6258 8.87884 22.6258 9.86257 21.6421C10.6058 20.8989 10.9908 19.6034 10.7105 18.5902C10.562 18.0539 10.5378 17.4045 10.9313 17.011L16.6311 11.3112C17.0246 10.9177 17.674 10.9419 18.2103 11.0904C19.2235 11.3707 20.519 10.9857 21.2622 10.2425C22.2459 9.25872 22.2459 7.66379 21.2622 6.68006C20.2785 5.69634 18.6835 5.69634 17.6998 6.68006C18.6835 5.69634 18.6835 4.1014 17.6998 3.11767C16.7161 2.13395 15.1212 2.13395 14.1374 3.11767Z" fill="#A6D168"/>
</svg>