<svg width="24" height="25" viewBox="0 0 24 25" fill="none" xmlns="http://www.w3.org/2000/svg">
<path d="M3 9.37988H21M7 3.37988V5.37988M17 3.37988V5.37988M6 12.3799H10V16.3799H6V12.3799ZM6.2 21.3799H17.8C18.9201 21.3799 19.4802 21.3799 19.908 21.1619C20.2843 20.9702 20.5903 20.6642 20.782 20.2879C21 19.8601 21 19.3 21 18.1799V8.57988C21 7.45977 21 6.89972 20.782 6.4719C20.5903 6.09557 20.2843 5.78961 19.908 5.59787C19.4802 5.37988 18.9201 5.37988 17.8 5.37988H6.2C5.0799 5.37988 4.51984 5.37988 4.09202 5.59787C3.71569 5.78961 3.40973 6.09557 3.21799 6.4719C3 6.89972 3 7.45977 3 8.57988V18.1799C3 19.3 3 19.8601 3.21799 20.2879C3.40973 20.6642 3.71569 20.9702 4.09202 21.1619C4.51984 21.3799 5.07989 21.3799 6.2 21.3799Z" stroke="#A6D168" stroke-width="2" stroke-linecap="round" stroke-linejoin="round"/>
</svg>