<svg fill="#ffffff" height="200px" width="200px" version="1.1" id="Icons" xmlns="http://www.w3.org/2000/svg" xmlns:xlink="http://www.w3.org/1999/xlink" viewBox="0 0 32 32" xml:space="preserve"><g id="SVGRepo_bgCarrier" stroke-width="0"></g><g id="SVGRepo_tracerCarrier" stroke-linecap="round" stroke-linejoin="round"></g><g id="SVGRepo_iconCarrier"> <path d="M29,13h-2h-4.5l2.6-6.1c0.3-0.6,0.3-1.4-0.1-1.9c-0.4-0.6-1-0.9-1.7-0.9h-7.1c-1.1,0-2.2,0.6-2.7,1.7L10.3,13H5H3 c-0.6,0-1,0.4-1,1s0.4,1,1,1h1.1l1.5,9.6c0.3,2,2,3.4,4,3.4h12.9c2,0,3.7-1.4,4-3.4l1.5-9.6H29c0.6,0,1-0.4,1-1S29.6,13,29,13z M11.2,24c-0.1,0-0.1,0-0.2,0c-0.5,0-0.9-0.3-1-0.8l-1-5c-0.1-0.5,0.2-1.1,0.8-1.2c0.5-0.1,1.1,0.2,1.2,0.8l1,5 C12.1,23.3,11.7,23.9,11.2,24z M15.3,6.6C15.5,6.2,15.9,6,16.2,6l7.1,0l-3,7h-7.8L15.3,6.6z M17,23c0,0.6-0.4,1-1,1s-1-0.4-1-1v-5 c0-0.6,0.4-1,1-1s1,0.4,1,1V23z M22,23.2c-0.1,0.5-0.5,0.8-1,0.8c-0.1,0-0.1,0-0.2,0c-0.5-0.1-0.9-0.6-0.8-1.2l1-5 c0.1-0.5,0.6-0.9,1.2-0.8c0.5,0.1,0.9,0.6,0.8,1.2L22,23.2z"></path> </g></svg>