<svg width="48" height="49" viewBox="0 0 48 49" fill="none" xmlns="http://www.w3.org/2000/svg">
<path d="M34 22.38C28.4772 22.38 24 26.8572 24 32.38C24 37.9028 28.4772 42.38 34 42.38C39.5228 42.38 44 37.9028 44 32.38C44 26.8572 39.5228 22.38 34 22.38ZM34 22.38V18.38M34 18.38V16.78C34 14.5398 34 13.4197 33.564 12.564C33.1806 11.8114 32.5686 11.1995 31.816 10.816C30.9604 10.38 29.8402 10.38 27.6 10.38H10.4C8.1598 10.38 7.03968 10.38 6.18404 10.816C5.43138 11.1995 4.81946 11.8114 4.43598 12.564C4 13.4197 4 14.5398 4 16.78V18.38M34 18.38H4M4 18.38V31.98C4 34.2202 4 35.3404 4.43598 36.196C4.81946 36.9486 5.43138 37.5606 6.18404 37.944C7.03968 38.38 8.1598 38.38 10.4 38.38H26M10 6.38V10.38M28 6.38V10.38M30 32.38H34M34 32.38H38M34 32.38V28.38M34 32.38V36.38" stroke="white" stroke-width="2" stroke-linecap="round" stroke-linejoin="round"/>
</svg>