<svg width="24" height="25" viewBox="0 0 24 25" fill="none" xmlns="http://www.w3.org/2000/svg">
<path d="M12 16.69C11.2283 16.6901 10.4715 16.477 9.81333 16.074L0 10.098V19.3567C0 19.7103 0.140476 20.0494 0.390524 20.2995C0.640573 20.5495 0.979711 20.69 1.33333 20.69H22.6667C23.0203 20.69 23.3594 20.5495 23.6095 20.2995C23.8595 20.0494 24 19.7103 24 19.3567V10.098L14.1947 16.0714C13.5342 16.4761 12.7746 16.6903 12 16.69Z" fill="#A6D168"/>
<path d="M23.2882 7.41001L12.8002 13.7967C12.5596 13.9448 12.2827 14.0233 12.0002 14.0233C11.7177 14.0233 11.4407 13.9448 11.2002 13.7967L0.712169 7.41001C0.435633 7.2456 0.221463 6.99409 0.10323 6.69489C-0.0150034 6.39568 -0.0306173 6.06571 0.0588357 5.75668C0.155574 5.44708 0.348812 5.17655 0.6103 4.98463C0.871788 4.79271 1.18781 4.68947 1.51217 4.69001H22.4895C22.814 4.68905 23.1302 4.79213 23.3918 4.98411C23.6533 5.17609 23.8465 5.44686 23.9428 5.75668C24.0323 6.06571 24.0167 6.39568 23.8984 6.69489C23.7802 6.99409 23.5647 7.2456 23.2882 7.41001Z" fill="#A6D168"/>
</svg>