<svg width="40" height="32" viewBox="0 0 40 32" fill="none" xmlns="http://www.w3.org/2000/svg">
<path d="M19.9999 24C18.7136 24.0003 17.4524 23.5739 16.3554 22.768L0 10.816V29.3334C0 30.0406 0.234125 30.7189 0.650869 31.219C1.06761 31.7191 1.63284 32 2.22221 32H37.7775C38.3669 32 38.9321 31.7191 39.3488 31.219C39.7656 30.7189 39.9997 30.0406 39.9997 29.3334V10.816L23.6576 22.7627C22.5569 23.5723 21.2909 24.0005 19.9999 24Z" fill="#A6D168"/>
<path d="M38.8135 5.44001L21.3336 18.2133C20.9327 18.5097 20.4711 18.6666 20.0003 18.6666C19.5294 18.6666 19.0678 18.5097 18.667 18.2133L1.18708 5.44001C0.726192 5.1112 0.369245 4.60817 0.172191 4.00976C-0.0248631 3.41136 -0.050886 2.75141 0.0982012 2.13335C0.25943 1.51415 0.581492 0.973088 1.0173 0.589253C1.45311 0.205418 1.97981 -0.0010577 2.52041 1.31745e-05H37.4824C38.0231 -0.00189838 38.5502 0.204253 38.9861 0.58821C39.4221 0.972167 39.744 1.51371 39.9046 2.13335C40.0537 2.75141 40.0276 3.41136 39.8306 4.00976C39.6335 4.60817 39.2744 5.1112 38.8135 5.44001Z" fill="#A6D168"/>
</svg>