<svg width="32" height="33" viewBox="0 0 32 33" fill="none" xmlns="http://www.w3.org/2000/svg">
<path d="M27.8667 3.04667H4.13335C3.74437 3.04667 3.37132 3.2012 3.09626 3.47625C2.82121 3.7513 2.66669 4.12436 2.66669 4.51334V28.2467C2.66669 28.4393 2.70462 28.63 2.77833 28.8079C2.85204 28.9859 2.96007 29.1476 3.09626 29.2838C3.23246 29.42 3.39414 29.528 3.57208 29.6017C3.75003 29.6754 3.94075 29.7133 4.13335 29.7133H16.9067V19.38H13.44V15.38H16.9067V12.38C16.8349 11.6757 16.918 10.9642 17.1503 10.2954C17.3826 9.6266 17.7584 9.01673 18.2513 8.50855C18.7442 8.00038 19.3424 7.60619 20.0038 7.35366C20.6652 7.10112 21.3738 6.99634 22.08 7.04667C23.1178 7.04029 24.1551 7.09371 25.1867 7.20667V10.8067H23.0667C21.3867 10.8067 21.0667 11.6067 21.0667 12.7667V15.34H25.0667L24.5467 19.34H21.0667V29.7133H27.8667C28.0593 29.7133 28.25 29.6754 28.428 29.6017C28.6059 29.528 28.7676 29.42 28.9038 29.2838C29.04 29.1476 29.148 28.9859 29.2217 28.8079C29.2954 28.63 29.3334 28.4393 29.3334 28.2467V4.51334C29.3334 4.32073 29.2954 4.13001 29.2217 3.95207C29.148 3.77413 29.04 3.61244 28.9038 3.47625C28.7676 3.34006 28.6059 3.23202 28.428 3.15832C28.25 3.08461 28.0593 3.04667 27.8667 3.04667Z" fill="#A3D063"/>
</svg>