<svg width="32" height="33" viewBox="0 0 32 33" fill="none" xmlns="http://www.w3.org/2000/svg">
<path d="M23.12 7.66001C22.8035 7.66001 22.4942 7.75384 22.2311 7.92965C21.968 8.10546 21.7629 8.35535 21.6418 8.64771C21.5207 8.94007 21.489 9.26178 21.5507 9.57215C21.6125 9.88252 21.7649 10.1676 21.9886 10.3914C22.2124 10.6151 22.4975 10.7675 22.8078 10.8293C23.1182 10.891 23.4399 10.8593 23.7323 10.7382C24.0246 10.6171 24.2745 10.412 24.4503 10.1489C24.6262 9.8858 24.72 9.57646 24.72 9.26001C24.72 8.83566 24.5514 8.42869 24.2514 8.12863C23.9513 7.82858 23.5443 7.66001 23.12 7.66001ZM29.2533 10.8867C29.2274 9.7804 29.0202 8.68588 28.64 7.64667C28.301 6.75752 27.7733 5.95238 27.0933 5.28667C26.4331 4.60324 25.6261 4.07891 24.7333 3.75334C23.6969 3.36155 22.6011 3.14962 21.4933 3.12667C20.08 3.04667 19.6267 3.04667 16 3.04667C12.3733 3.04667 11.92 3.04667 10.5067 3.12667C9.39886 3.14962 8.30311 3.36155 7.26666 3.75334C6.37556 4.0822 5.56923 4.60609 4.90666 5.28667C4.22322 5.94691 3.69889 6.75393 3.37332 7.64667C2.98154 8.68313 2.7696 9.77888 2.74666 10.8867C2.66666 12.3 2.66666 12.7533 2.66666 16.38C2.66666 20.0067 2.66666 20.46 2.74666 21.8733C2.7696 22.9811 2.98154 24.0769 3.37332 25.1133C3.69889 26.0061 4.22322 26.8131 4.90666 27.4733C5.56923 28.1539 6.37556 28.6778 7.26666 29.0067C8.30311 29.3985 9.39886 29.6104 10.5067 29.6333C11.92 29.7133 12.3733 29.7133 16 29.7133C19.6267 29.7133 20.08 29.7133 21.4933 29.6333C22.6011 29.6104 23.6969 29.3985 24.7333 29.0067C25.6261 28.6811 26.4331 28.1568 27.0933 27.4733C27.7763 26.8101 28.3044 26.0043 28.64 25.1133C29.0202 24.0741 29.2274 22.9796 29.2533 21.8733C29.2533 20.46 29.3333 20.0067 29.3333 16.38C29.3333 12.7533 29.3333 12.3 29.2533 10.8867ZM26.8533 21.7133C26.8436 22.5597 26.6903 23.3983 26.4 24.1933C26.1871 24.7736 25.8452 25.2979 25.4 25.7267C24.9675 26.1673 24.4443 26.5086 23.8667 26.7267C23.0716 27.017 22.233 27.1703 21.3867 27.18C20.0533 27.2467 19.56 27.26 16.0533 27.26C12.5467 27.26 12.0533 27.26 10.72 27.18C9.84118 27.1965 8.96612 27.0611 8.13332 26.78C7.58103 26.5508 7.0818 26.2104 6.66666 25.78C6.22411 25.3517 5.88645 24.8269 5.67999 24.2467C5.35446 23.4402 5.17391 22.5826 5.14666 21.7133C5.14666 20.38 5.06666 19.8867 5.06666 16.38C5.06666 12.8733 5.06666 12.38 5.14666 11.0467C5.15263 10.1814 5.31059 9.32393 5.61332 8.51334C5.84805 7.95055 6.20834 7.44888 6.66666 7.04667C7.07174 6.58823 7.57237 6.22413 8.13332 5.98001C8.94606 5.68673 9.80265 5.53345 10.6667 5.52667C12 5.52667 12.4933 5.44667 16 5.44667C19.5067 5.44667 20 5.44667 21.3333 5.52667C22.1797 5.53638 23.0183 5.68967 23.8133 5.98001C24.4192 6.20488 24.963 6.57047 25.4 7.04667C25.8369 7.45624 26.1783 7.95698 26.4 8.51334C26.6963 9.32525 26.8497 10.1824 26.8533 11.0467C26.92 12.38 26.9333 12.8733 26.9333 16.38C26.9333 19.8867 26.92 20.38 26.8533 21.7133ZM16 9.54001C14.6477 9.54264 13.3266 9.94604 12.2035 10.6992C11.0805 11.4524 10.2058 12.5216 9.69017 13.7717C9.17451 15.0218 9.04095 16.3966 9.30638 17.7226C9.57181 19.0485 10.2243 20.2661 11.1814 21.2213C12.1385 22.1766 13.3573 22.8267 14.6838 23.0895C16.0103 23.3524 17.3849 23.2161 18.6339 22.6981C19.883 22.18 20.9505 21.3033 21.7015 20.1787C22.4525 19.0542 22.8533 17.7323 22.8533 16.38C22.8551 15.4801 22.6789 14.5888 22.335 13.7573C21.991 12.9257 21.4861 12.1704 20.8491 11.5347C20.2122 10.8991 19.4559 10.3956 18.6237 10.0532C17.7915 9.71091 16.8998 9.53649 16 9.54001ZM16 20.82C15.1218 20.82 14.2634 20.5596 13.5333 20.0717C12.8031 19.5839 12.234 18.8904 11.898 18.0791C11.5619 17.2678 11.474 16.3751 11.6453 15.5138C11.8166 14.6525 12.2395 13.8614 12.8604 13.2405C13.4814 12.6195 14.2725 12.1966 15.1338 12.0253C15.9951 11.854 16.8878 11.9419 17.6991 12.278C18.5104 12.614 19.2038 13.1831 19.6917 13.9133C20.1796 14.6434 20.44 15.5019 20.44 16.38C20.44 16.9631 20.3251 17.5404 20.102 18.0791C19.8789 18.6178 19.5518 19.1073 19.1395 19.5196C18.7273 19.9319 18.2378 20.2589 17.6991 20.482C17.1604 20.7052 16.5831 20.82 16 20.82Z" fill="#A3D063"/>
</svg>