<svg width="20" height="21" viewBox="0 0 20 21" fill="none" xmlns="http://www.w3.org/2000/svg">
<path d="M9.40831 10.3798L12.3583 7.4298C12.5135 7.27366 12.6006 7.06245 12.6006 6.8423C12.6006 6.62214 12.5135 6.41093 12.3583 6.2548C12.2808 6.17669 12.1887 6.1147 12.0871 6.07239C11.9856 6.03008 11.8766 6.0083 11.7666 6.0083C11.6566 6.0083 11.5477 6.03008 11.4462 6.07239C11.3446 6.1147 11.2524 6.17669 11.175 6.2548L7.64164 9.78813C7.56353 9.8656 7.50154 9.95777 7.45923 10.0593C7.41692 10.1609 7.39514 10.2698 7.39514 10.3798C7.39514 10.4898 7.41692 10.5987 7.45923 10.7003C7.50154 10.8018 7.56353 10.894 7.64164 10.9715L11.175 14.5465C11.2528 14.6237 11.3452 14.6848 11.4467 14.7263C11.5482 14.7677 11.657 14.7888 11.7666 14.7881C11.8763 14.7888 11.985 14.7677 12.0866 14.7263C12.1881 14.6848 12.2804 14.6237 12.3583 14.5465C12.5135 14.3903 12.6006 14.1791 12.6006 13.959C12.6006 13.7388 12.5135 13.5276 12.3583 13.3715L9.40831 10.3798Z" fill="#A3D063"/>
</svg>