<svg width="24" height="25" viewBox="0 0 24 25" fill="none" xmlns="http://www.w3.org/2000/svg">
<path d="M9.05642 2.66426L10.0299 4.40866C10.9085 5.98288 10.5558 8.048 9.17208 9.43172C9.17208 9.43172 7.49384 11.1102 10.5368 14.1533C13.5788 17.1953 15.2583 15.518 15.2583 15.518C16.6421 14.1342 18.7071 13.7816 20.2814 14.6601L22.0258 15.6336C24.403 16.9602 24.6836 20.2938 22.5943 22.3834C21.3388 23.6389 19.8006 24.6158 18.1004 24.6802C15.2382 24.7888 10.3775 24.0644 5.50157 19.1885C0.625699 14.3126 -0.0986821 9.45185 0.00982813 6.58965C0.0742833 4.88941 1.05121 3.35135 2.30672 2.09585C4.39615 0.00642115 7.72978 0.287162 9.05642 2.66426Z" fill="#A3D063"/>
</svg>