<svg width="20" height="21" viewBox="0 0 20 21" fill="none" xmlns="http://www.w3.org/2000/svg">
<path d="M12.3583 9.78813L8.82501 6.2548C8.74754 6.17669 8.65538 6.1147 8.55383 6.07239C8.45228 6.03008 8.34336 6.0083 8.23335 6.0083C8.12334 6.0083 8.01442 6.03008 7.91287 6.07239C7.81132 6.1147 7.71915 6.17669 7.64168 6.2548C7.48647 6.41093 7.39935 6.62214 7.39935 6.8423C7.39935 7.06245 7.48647 7.27366 7.64168 7.4298L10.5917 10.3798L7.64168 13.3298C7.48647 13.4859 7.39935 13.6971 7.39935 13.9173C7.39935 14.1375 7.48647 14.3487 7.64168 14.5048C7.71955 14.582 7.81189 14.6431 7.91342 14.6846C8.01496 14.7261 8.12367 14.7471 8.23335 14.7465C8.34302 14.7471 8.45174 14.7261 8.55327 14.6846C8.6548 14.6431 8.74715 14.582 8.82501 14.5048L12.3583 10.9715C12.4365 10.894 12.4984 10.8018 12.5408 10.7003C12.5831 10.5987 12.6048 10.4898 12.6048 10.3798C12.6048 10.2698 12.5831 10.1609 12.5408 10.0593C12.4984 9.95777 12.4365 9.8656 12.3583 9.78813Z" fill="#A3D063"/>
</svg>