<svg width="24" height="25" viewBox="0 0 24 25" fill="none" xmlns="http://www.w3.org/2000/svg">
<path d="M7.05603 10.3587C7.33444 10.9116 7.38966 11.5503 7.21026 12.1428C7.03087 12.7353 6.63059 13.2362 6.09224 13.5418C5.06908 13.9018 3.84129 13.0568 3.35119 11.6572C3.07229 11.1043 3.01668 10.4653 3.19585 9.87255C3.37502 9.27978 3.77526 8.7786 4.31371 8.47276C5.33687 8.11276 6.56466 8.95907 7.05603 10.3587ZM15.2931 20.3098C14.8466 20.3104 14.4044 20.2228 13.9919 20.052C13.5793 19.8812 13.2046 19.6305 12.8893 19.3144C12.6534 19.0787 12.3335 18.9463 12 18.9463C11.6665 18.9463 11.3467 19.0787 11.1108 19.3144C10.4718 19.9461 9.60885 20.2992 8.71039 20.2966C7.81194 20.294 6.95102 19.936 6.31571 19.3007C5.6804 18.6653 5.32234 17.8044 5.31976 16.906C5.31718 16.0075 5.67028 15.1445 6.30192 14.5056C7.05 13.7569 7.93827 13.163 8.91599 12.7578C9.8937 12.3526 10.9417 12.144 12 12.144C13.0584 12.144 14.1064 12.3526 15.0841 12.7578C16.0618 13.163 16.9501 13.7569 17.6981 14.5056C18.1735 14.9812 18.4972 15.5871 18.6282 16.2467C18.7593 16.9062 18.6918 17.5898 18.4344 18.2111C18.177 18.8323 17.7412 19.3633 17.182 19.7368C16.6229 20.1104 15.9655 20.3098 15.2931 20.3098ZM11.659 8.03065C11.8194 9.71949 10.9478 11.1835 9.71371 11.2997C8.47961 11.4159 7.34908 10.1414 7.18992 8.45255C7.0295 6.76497 7.90108 5.30097 9.13519 5.18476C10.3693 5.06728 11.4986 6.34181 11.659 8.03065ZM12.3411 8.03065C12.1807 9.71949 13.0522 11.1835 14.2863 11.2997C15.5205 11.4159 16.6497 10.1414 16.8101 8.45255C16.9706 6.76497 16.099 5.30097 14.8649 5.18476C13.6308 5.06728 12.5002 6.34181 12.3411 8.03065ZM16.944 10.3574C16.6649 10.9106 16.6092 11.5499 16.7887 12.143C16.9681 12.7361 17.3688 13.2374 17.9078 13.5431C18.931 13.9018 20.1588 13.0568 20.6489 11.6572C20.9278 11.1043 20.9834 10.4653 20.8042 9.87255C20.625 9.27978 20.2248 8.7786 19.6863 8.47276C18.6632 8.11276 17.4354 8.95781 16.944 10.3574Z" fill="#A6D168"/>
</svg>