<svg width="32" height="33" viewBox="0 0 32 33" fill="none" xmlns="http://www.w3.org/2000/svg">
<path d="M29.3334 8.11334C28.3311 8.54813 27.2713 8.83556 26.1867 8.96667C27.3309 8.2831 28.1884 7.20772 28.6 5.94001C27.5248 6.58009 26.3477 7.03107 25.12 7.27334C24.2994 6.38344 23.2066 5.79107 22.0131 5.58914C20.8196 5.38721 19.5927 5.58715 18.5251 6.15759C17.4574 6.72803 16.6093 7.63671 16.1137 8.74112C15.6181 9.84553 15.5031 11.0832 15.7867 12.26C13.6126 12.15 11.4859 11.5839 9.54489 10.5985C7.60384 9.61303 5.89182 8.23026 4.52002 6.54001C4.03887 7.38023 3.78605 8.33177 3.78669 9.30001C3.78498 10.1992 4.00564 11.0848 4.42903 11.8781C4.85241 12.6714 5.46538 13.3476 6.21335 13.8467C5.34399 13.823 4.4932 13.5897 3.73335 13.1667V13.2333C3.73987 14.4932 4.18135 15.7121 4.98311 16.684C5.78487 17.6558 6.89769 18.3209 8.13335 18.5667C7.65769 18.7114 7.16385 18.7878 6.66669 18.7933C6.32254 18.7893 5.97925 18.7581 5.64002 18.7C5.9919 19.7838 6.67285 20.7309 7.58812 21.4096C8.50339 22.0882 9.60745 22.4647 10.7467 22.4867C8.82296 24.0004 6.44786 24.8265 4.00002 24.8333C3.55433 24.8348 3.109 24.8081 2.66669 24.7533C5.16592 26.367 8.07844 27.2236 11.0534 27.22C13.1063 27.2413 15.1429 26.8534 17.0442 26.0788C18.9455 25.3042 20.6734 24.1585 22.127 22.7087C23.5805 21.2588 24.7306 19.5339 25.5101 17.6345C26.2896 15.7352 26.6827 13.6996 26.6667 11.6467C26.6667 11.42 26.6667 11.18 26.6667 10.94C27.7129 10.1598 28.6153 9.20324 29.3334 8.11334Z" fill="#A3D063"/>
</svg>