<svg width="32" height="33" viewBox="0 0 32 33" fill="none" xmlns="http://www.w3.org/2000/svg">
<path d="M19.0667 21.4467C17.2 21.4467 15.3334 20.6467 14 19.3133C12.1334 17.4467 11.4667 15.0467 12 12.6467C12 11.8467 12.6667 11.3133 13.3334 11.58C14 11.7133 14.5334 12.38 14.4 13.18C14.1334 14.6467 14.5334 16.2467 15.6 17.3133C16.8 18.5133 18.4 18.9133 19.8667 18.6467C20.6667 18.5133 21.4667 18.1133 22 17.58C22.1334 17.4467 22.1334 17.4467 22.2667 17.4467L26.1334 13.58C27.8667 11.8467 27.8667 8.91334 26.1334 7.04667C24.2667 5.18 21.3334 5.18 19.4667 6.91334L17.4667 8.91334L17.3334 9.04667C16.9334 9.58 16 9.71334 15.4667 9.31334C14.9334 8.91334 14.8 7.98 15.2 7.44667C15.4667 7.18 15.6 7.04667 15.7334 7.04667L17.7334 5.04667C20.5334 2.24667 25.2 2.24667 28 5.04667C30.9334 7.98 30.9334 12.5133 28.1334 15.4467L24.2667 19.3133C24.1334 19.4467 24 19.58 23.8667 19.7133C22.9334 20.5133 21.8667 21.0467 20.5334 21.3133C20 21.3133 19.4667 21.4467 19.0667 21.4467Z" fill="#A3D063"/>
<path d="M10.5334 29.8467C8.66668 29.8467 6.80002 29.18 5.33335 27.7133C2.40002 24.78 2.40002 20.2467 5.20002 17.3133L9.06668 13.4467C9.33335 13.4467 9.33335 13.3133 9.46668 13.18C10.4 12.38 11.4667 11.8467 12.8 11.58C15.2 11.0467 17.6 11.8467 19.4667 13.58C21.3334 15.4467 22 17.8467 21.4667 20.2467C21.3334 20.9133 20.6667 21.4467 19.8667 21.3133C19.2 21.18 18.6667 20.5133 18.8 19.7133C19.0667 18.2467 18.6667 16.6467 17.6 15.58C16.4 14.38 14.8 13.98 13.3334 14.2467C12.5334 14.38 11.7334 14.78 11.2 15.3133C11.0667 15.4467 11.0667 15.4467 10.9334 15.4467L7.06669 19.3133C5.33335 21.0467 5.33335 23.98 7.06669 25.8467C8.93335 27.7133 11.8667 27.7133 13.7334 25.98L15.7334 23.98L15.8667 23.8467C16.2667 23.3133 17.2 23.18 17.7334 23.58C18.2667 23.98 18.4 24.9133 18 25.4467C17.8667 25.58 17.7334 25.7133 17.6 25.8467L15.6 27.8467C14.2667 29.18 12.4 29.8467 10.5334 29.8467Z" fill="#A3D063"/>
</svg>