<svg xml:space="preserve" style="max-height: 500px" viewBox="-138.656 196.544 603.7520000000001 159.088" y="0px" x="0px" xmlns:xlink="http://www.w3.org/1999/xlink" xmlns="http://www.w3.org/2000/svg" id="layer" version="1.1" width="603.7520000000001" height="159.088">
<style type="text/css">
	.st0{fill:#004346;}
	.st1{fill:url(#SVGID_1_);}
</style>
<path d="M-129.4,259.9c0,10.1,5.9,14.5,18.1,17.3l9.5,2c11.1,2.5,13.3,5,13.3,10.5c0,6.5-5.7,10.6-16,10.6&#10;&#9;s-16.2-4.6-16.9-14h-9.9c0,14.5,10.4,22.9,26.6,22.9c17.8,0,26.4-9,26.4-20.7c0-10.5-6.2-15.5-16.8-17.8l-9.9-2.3&#10;&#9;c-11.4-2.5-14.5-4-14.5-9.7c0-5.8,4.1-10.1,13.5-10.1c11.4,0,14.8,5.2,15.6,12.1h9.9c0-14.2-11.1-21.1-25.1-21.1&#10;&#9;c-16.4,0-24.2,9.4-24.2,20.4 M-73.9,241.3v39.4c0,20.1,9.5,28.3,26.2,28.3s26.2-8.3,26.2-28.3v-39.4h-10.9V282&#10;&#9;c0,12.9-5.5,17.9-15.9,17.9c-9.3,0-14.9-5.3-14.9-17.9v-40.7H-73.9z M-14.3,241.3v65.9h9.9V256l31.6,51.3h11.3v-66h-9.9v51l-30.9-51&#10;&#9;H-14.3z M102.2,261.8c-1.1-13.2-11.9-22.1-27.3-22.1c-19.2,0-30.8,14-30.8,34.2c0,23.6,12.9,35,29.9,35&#10;&#9;c14.8,0.7,27.6-10.6,28.5-25.4H92.3c-2.1,10.5-7.9,16.2-17.6,16.2c-10.9,0-19.7-7.3-19.7-24.7c0-18.1,8.2-26.3,19.7-26.3&#10;&#9;c10.1,0,15.2,4.9,17.2,12.9L102.2,261.8z M106.8,274.5c0,22.5,12.9,34.7,31.8,34.7c20,0,32.1-14.2,32.1-35.7&#10;&#9;c0-23.8-14-34.1-32.1-34.1S106.8,251.7,106.8,274.5 M117.6,274.8c0-17,8.8-26.2,21.5-26.2c11.7,0,21,8.3,21,24.9&#10;&#9;c0,17.6-8.5,26.4-20.7,26.4C126,299.9,117.6,291.5,117.6,274.8 M186.8,250.3h19.8c7.8,0,11.9,3.1,11.9,10.4c0,7.3-4,10.6-12.8,10.6&#10;&#9;h-18.9V250.3z M176.3,241.3v65.9h10.5v-27.5h18.1c8.7,0,11.8,2.6,12,10.1l0.5,9.3c0,2.7,0.4,5.5,1.2,8.1h11.3&#10;&#9;c-1.6-3.5-2.4-7.4-2.1-11.3l-0.2-7.3c-0.2-7.6-2.1-10.9-8.2-13.5c6.2-2.7,10-9,9.6-15.7c0-10.9-6.7-18.1-21.8-18.1L176.3,241.3z&#10;&#9; M235.3,241.3v65.9h10.6v-26.5h18.5c13.6,0,20.7-7.6,20.7-19.8c0-12.8-7.9-19.6-20.3-19.6H235.3z M245.9,250.2h16.2&#10;&#9;c8.6,0,12.4,3.6,12.4,10.9s-4,10.9-12.4,10.9h-16.2V250.2z" class="st0"/>
<radialGradient gradientUnits="userSpaceOnUse" gradientTransform="matrix(1 0 0 -1 0 560)" r="87.0511" cy="285" cx="381.6588" id="SVGID_1_">
	<stop style="stop-color:#FFCB05" offset="0"/>
	<stop style="stop-color:#FFCB05" offset="0.5"/>
	<stop style="stop-color:#FFCB05;stop-opacity:0.78" offset="0.59"/>
	<stop style="stop-color:#FFCB05;stop-opacity:0.5" offset="0.7"/>
	<stop style="stop-color:#FFCB05;stop-opacity:0.29" offset="0.8"/>
	<stop style="stop-color:#FFCB05;stop-opacity:0.13" offset="0.89"/>
	<stop style="stop-color:#FFCB05;stop-opacity:4.000000e-002" offset="0.96"/>
	<stop style="stop-color:#FFCB05;stop-opacity:0" offset="1"/>
</radialGradient>
<path d="M381.7,187.9c-48.1,0-87.1,39-87.1,87.1s39,87.1,87.1,87.1s87.1-39,87.1-87.1S429.7,187.9,381.7,187.9z&#10;&#9; M381.7,318.5c-24,0-43.5-19.5-43.5-43.5s19.5-43.5,43.5-43.5c24,0,43.5,19.5,43.5,43.5S405.7,318.5,381.7,318.5z" class="st1"/>
</svg>